HIERARCHY
ROOT joint_Root
{
	OFFSET 0.0 0.0 0.0
	CHANNELS 6 Xposition Yposition Zposition Zrotation Xrotation Yrotation 
	JOINT Hips
	{
		OFFSET 4.5925 91.4895 -427.239
		CHANNELS 6 Xposition Yposition Zposition Zrotation Xrotation Yrotation 
		JOINT Spine
		{
			OFFSET 15.7357 0.0 0.0
			CHANNELS 6 Xposition Yposition Zposition Zrotation Xrotation Yrotation 
			JOINT Chest
			{
				OFFSET 8.98455 -0.406207 0.0
				CHANNELS 6 Xposition Yposition Zposition Zrotation Xrotation Yrotation 
				JOINT Neck
				{
					OFFSET 16.3773 0.0 0.0
					CHANNELS 6 Xposition Yposition Zposition Zrotation Xrotation Yrotation 
					JOINT Head
					{
						OFFSET 6.45672 0.0 0.0
						CHANNELS 6 Xposition Yposition Zposition Zrotation Xrotation Yrotation 
						End Site
						{
							OFFSET 0.0 0.0 0.0
						}
					}
				}
				JOINT Shoulder_L
				{
					OFFSET 12.9942 -0.242716 4.98039
					CHANNELS 6 Xposition Yposition Zposition Zrotation Xrotation Yrotation 
					JOINT UpperArm_L
					{
						OFFSET 5.34809 0.0 0.0
						CHANNELS 6 Xposition Yposition Zposition Zrotation Xrotation Yrotation 
						JOINT LowerArm_L
						{
							OFFSET 24.3286 1.87007e-05 0.0
							CHANNELS 6 Xposition Yposition Zposition Zrotation Xrotation Yrotation 
							JOINT Hand_L
							{
								OFFSET 22.2916 0.0 0.0
								CHANNELS 6 Xposition Yposition Zposition Zrotation Xrotation Yrotation 
								End Site
								{
									OFFSET 0.0 0.0 0.0
								}
							}
						}
					}
				}
				JOINT Shoulder_R
				{
					OFFSET 12.9945 -0.242716 -4.98039
					CHANNELS 6 Xposition Yposition Zposition Zrotation Xrotation Yrotation 
					JOINT UpperArm_R
					{
						OFFSET -5.34813 0.0 0.0
						CHANNELS 6 Xposition Yposition Zposition Zrotation Xrotation Yrotation 
						JOINT LowerArm_R
						{
							OFFSET -24.3289 0.000322201 0.0
							CHANNELS 6 Xposition Yposition Zposition Zrotation Xrotation Yrotation 
							JOINT Hand_R
							{
								OFFSET -22.2915 -0.000108084 0.0
								CHANNELS 6 Xposition Yposition Zposition Zrotation Xrotation Yrotation 
								End Site
								{
									OFFSET 0.0 0.0 0.0
								}
							}
						}
					}
				}
			}
		}
		JOINT UpperLeg_L
		{
			OFFSET -2.19248 -6.46944 0.0
			CHANNELS 6 Xposition Yposition Zposition Zrotation Xrotation Yrotation 
			JOINT LowerLeg_L
			{
				OFFSET 39.0811 0.0 -1.23785e-05
				CHANNELS 6 Xposition Yposition Zposition Zrotation Xrotation Yrotation 
				JOINT Foot_L
				{
					OFFSET 40.9854 0.0 -1.26872e-05
					CHANNELS 6 Xposition Yposition Zposition Zrotation Xrotation Yrotation 
					JOINT Toes_L
					{
						OFFSET 11.7543 0.0 0.0
						CHANNELS 6 Xposition Yposition Zposition Zrotation Xrotation Yrotation 
						End Site
						{
							OFFSET 0.0 0.0 0.0
						}
					}
				}
			}
		}
		JOINT UpperLeg_R
		{
			OFFSET -2.19251 6.46944 0.0
			CHANNELS 6 Xposition Yposition Zposition Zrotation Xrotation Yrotation 
			JOINT LowerLeg_R
			{
				OFFSET -39.0811 -0.00228153 -0.0401928
				CHANNELS 6 Xposition Yposition Zposition Zrotation Xrotation Yrotation 
				JOINT Foot_R
				{
					OFFSET -40.9854 0.0 0.0
					CHANNELS 6 Xposition Yposition Zposition Zrotation Xrotation Yrotation 
					JOINT Toes_R
					{
						OFFSET -11.7543 0.0 0.0
						CHANNELS 6 Xposition Yposition Zposition Zrotation Xrotation Yrotation 
						End Site
						{
							OFFSET 0.0 0.0 0.0
						}
					}
				}
			}
		}
	}
}
MOTION
Frames:	8
Frame Time:	0.0333333
0.000000 0.000000 0.000000 0.000000 0.000000 -0.000000 -4.699860 91.484800 2.225510 89.255800 7.212700 1.398010 15.735700 0.000005 -0.000001 103.745000 86.014800 -106.663000 8.984550 -0.406207 -0.000000 0.036495 2.090000 -5.832730 16.377300 -0.000001 -0.000001 9.553460 -6.025450 6.754860 6.456720 -0.000001 -0.000000 1.703840 -3.889230 0.384993 12.994200 -0.242716 4.980390 -91.404300 3.712170 -69.261500 5.348090 -0.000007 -0.000001 -62.672000 23.071700 -9.094220 24.328600 0.000019 0.000005 8.666960 19.060400 -25.021700 22.291600 -0.000001 0.000005 14.666900 5.174790 3.343610 12.994500 -0.242716 -4.980390 94.353500 -10.567100 -67.455000 -5.348130 -0.000001 -0.000004 -62.084400 -58.731200 -110.699000 -24.328900 0.000322 -0.000009 -5.846110 -6.309900 -42.966600 -22.291500 -0.000108 -0.000004 17.167300 5.533390 -7.945180 -2.192480 -6.469440 -0.000000 -172.901000 -8.095190 -6.260310 39.081100 -0.000007 -0.000012 -0.194616 0.414379 25.157700 40.985400 -0.000006 -0.000013 -2.064610 10.853900 -67.538300 11.754300 -0.000000 0.000003 -0.000270 -0.002379 -16.666500 -2.192510 6.469440 -0.000001 179.484000 29.434200 177.183000 -39.081100 -0.002282 -0.040193 -0.005356 0.019204 24.295900 -40.985400 0.000008 0.000006 7.957280 10.548500 -71.453600 -11.754300 -0.000006 -0.000006 -0.002024 -0.029021 -17.753200
0.000000 0.000000 0.000000 0.000000 0.000000 -0.000000 -4.535200 91.477200 2.275880 89.202800 6.417310 1.458610 15.735700 0.000005 -0.000001 102.959000 85.992300 -105.743000 8.984550 -0.406207 -0.000000 0.099904 1.983040 -5.566570 16.377300 -0.000001 -0.000001 9.390850 -5.841210 6.650620 6.456720 -0.000001 -0.000000 1.772340 -3.540550 0.133694 12.994200 -0.242716 4.980390 -91.511700 4.004830 -69.300400 5.348090 -0.000007 -0.000001 -62.150700 23.587600 -9.759020 24.328600 0.000019 0.000005 8.640950 18.655700 -25.411000 22.291600 -0.000001 0.000005 14.922600 5.180130 3.212680 12.994500 -0.242716 -4.980390 93.980800 -9.995120 -68.151600 -5.348130 -0.000001 -0.000004 -59.505100 -58.267500 -106.328000 -24.328900 0.000322 -0.000009 -6.376320 -6.005760 -46.879500 -22.291500 -0.000108 -0.000004 17.789700 5.532110 -7.888500 -2.192480 -6.469440 -0.000000 -172.925000 -8.637980 -6.026940 39.081100 -0.000007 -0.000012 -0.197293 0.418601 25.235500 40.985400 -0.000006 -0.000013 -1.984470 10.625700 -67.728200 11.754300 -0.000000 0.000003 -0.000269 -0.002371 -16.666200 -2.192510 6.469440 -0.000001 179.347000 29.063500 177.208000 -39.081100 -0.002282 -0.040193 -0.003984 0.016100 24.381700 -40.985400 0.000008 0.000006 7.894840 10.976200 -71.466600 -11.754300 -0.000006 -0.000006 -0.001959 -0.028201 -17.719800
0.000000 0.000000 0.000000 0.000000 0.000000 -0.000000 -4.333760 91.464300 2.329230 89.175200 5.607110 1.564730 15.735700 0.000005 -0.000001 101.685000 85.973500 -104.339000 8.984550 -0.406207 -0.000000 0.167818 1.806380 -5.309010 16.377300 -0.000001 -0.000001 9.117630 -5.616040 6.400810 6.456720 -0.000001 -0.000000 2.000020 -3.221530 -0.141844 12.994200 -0.242716 4.980390 -91.608200 4.282790 -69.396900 5.348090 -0.000007 -0.000001 -61.684300 24.416600 -10.442300 24.328600 0.000019 0.000005 8.401450 18.246700 -25.253000 22.291600 -0.000001 0.000005 14.998000 5.172390 3.402160 12.994500 -0.242716 -4.980390 93.478500 -9.159490 -69.099900 -5.348130 -0.000001 -0.000004 -55.936000 -57.202500 -100.139000 -24.328900 0.000322 -0.000009 -7.569630 -5.880620 -52.363400 -22.291500 -0.000108 -0.000004 18.804000 5.533780 -7.962530 -2.192480 -6.469440 -0.000000 -173.005000 -9.108060 -5.751870 39.081100 -0.000007 -0.000012 -0.197018 0.416028 25.341000 40.985400 -0.000006 -0.000013 -1.888870 10.317600 -67.947200 11.754300 -0.000000 0.000003 -0.000288 -0.002515 -16.671400 -2.192510 6.469440 -0.000001 179.088000 28.878900 177.284000 -39.081100 -0.002282 -0.040193 -0.005313 0.018895 24.536500 -40.985400 0.000008 0.000006 7.987140 11.591500 -71.570700 -11.754300 -0.000006 -0.000006 -0.001976 -0.028410 -17.728300
0.000000 0.000000 0.000000 0.000000 0.000000 -0.000000 -4.115350 91.446200 2.389130 89.138600 4.693330 1.749260 15.735700 0.000005 -0.000001 100.456000 85.943700 -102.979000 8.984550 -0.406207 -0.000000 0.253107 1.637140 -5.045920 16.377300 -0.000001 -0.000001 8.721540 -5.230740 5.933350 6.456720 -0.000001 -0.000000 2.239230 -2.858530 -0.346486 12.994200 -0.242716 4.980390 -91.651400 4.419590 -69.487300 5.348090 -0.000007 -0.000001 -61.608400 24.978800 -11.060800 24.328600 0.000019 0.000005 8.248850 18.557800 -24.489800 22.291600 -0.000001 0.000005 14.869400 5.180450 3.204780 12.994500 -0.242716 -4.980390 92.820200 -7.855410 -70.179200 -5.348130 -0.000001 -0.000004 -51.528600 -55.267700 -92.500500 -24.328900 0.000322 -0.000009 -8.759640 -5.275410 -59.171700 -22.291500 -0.000108 -0.000004 19.949900 5.535600 -8.044130 -2.192480 -6.469440 -0.000000 -173.053000 -9.758780 -5.390710 39.081100 -0.000007 -0.000012 -0.199912 0.419557 25.477300 40.985400 -0.000006 -0.000013 -1.788310 10.009600 -68.185200 11.754300 -0.000000 0.000003 -0.000291 -0.002538 -16.672200 -2.192510 6.469440 -0.000001 178.801000 28.533500 177.425000 -39.081100 -0.002282 -0.040193 -0.008840 0.026422 24.700600 -40.985400 0.000008 0.000006 7.885000 12.159700 -71.617000 -11.754300 -0.000006 -0.000006 -0.001846 -0.026768 -17.661600
0.000000 0.000000 0.000000 0.000000 0.000000 -0.000000 -3.893450 91.429200 2.418760 89.071800 3.801010 1.805120 15.735700 0.000005 -0.000001 99.107100 85.960200 -101.474000 8.984550 -0.406207 -0.000000 0.245937 1.433700 -4.733970 16.377300 -0.000001 -0.000001 8.248030 -4.729250 5.256130 6.456720 -0.000001 -0.000000 2.354200 -2.517320 -0.465089 12.994200 -0.242716 4.980390 -91.699200 4.539870 -69.455200 5.348090 -0.000007 -0.000001 -61.565300 25.961400 -11.783900 24.328600 0.000019 0.000005 7.943140 18.820700 -23.388500 22.291600 -0.000001 0.000005 14.639400 5.177550 3.276020 12.994500 -0.242716 -4.980390 92.033300 -6.034740 -71.340100 -5.348130 -0.000001 -0.000004 -46.682300 -52.410500 -83.938600 -24.328900 0.000322 -0.000009 -9.196740 -3.993780 -66.720700 -22.291500 -0.000108 -0.000004 20.656100 5.534820 -8.009080 -2.192480 -6.469440 -0.000000 -173.131000 -10.225000 -5.217310 39.081100 -0.000007 -0.000012 -0.199164 0.414738 25.651400 40.985400 -0.000006 -0.000013 -1.702970 9.569790 -68.424300 11.754300 -0.000000 0.000003 -0.000289 -0.002521 -16.671600 -2.192510 6.469440 -0.000001 178.630000 28.097200 177.375000 -39.081100 -0.002282 -0.040193 -0.016174 0.042044 24.867000 -40.985400 0.000008 0.000006 7.792890 12.669800 -71.632100 -11.754300 -0.000006 -0.000006 -0.001613 -0.023760 -17.539300
0.000000 0.000000 0.000000 0.000000 0.000000 -0.000000 -3.652350 91.410100 2.469740 89.044800 2.944250 1.926170 15.735700 0.000005 -0.000001 97.549400 85.958100 -99.753200 8.984550 -0.406207 -0.000000 0.274834 1.205730 -4.407750 16.377300 -0.000001 -0.000001 7.653280 -4.161960 4.371510 6.456720 -0.000001 -0.000000 2.455830 -2.219550 -0.505384 12.994200 -0.242716 4.980390 -91.773100 4.732130 -69.432500 5.348090 -0.000007 -0.000001 -61.529200 27.045700 -12.337700 24.328600 0.000019 0.000005 7.651020 19.074700 -22.345500 22.291600 -0.000001 0.000005 14.314000 5.172320 3.403850 12.994500 -0.242716 -4.980390 91.179800 -3.727890 -72.424700 -5.348130 -0.000001 -0.000004 -41.887300 -48.311400 -75.006500 -24.328900 0.000322 -0.000009 -8.807850 -2.483990 -74.370700 -22.291500 -0.000108 -0.000004 20.910200 5.529120 -7.756460 -2.192480 -6.469440 -0.000000 -173.235000 -10.615300 -4.937210 39.081100 -0.000007 -0.000012 -0.202884 0.420087 25.778800 40.985400 -0.000006 -0.000013 -1.616730 9.140920 -68.665200 11.754300 -0.000000 0.000003 -0.000297 -0.002580 -16.673700 -2.192510 6.469440 -0.000001 178.359000 27.715700 177.422000 -39.081100 -0.002282 -0.040193 -0.024330 0.059177 25.037100 -40.985400 0.000008 0.000006 7.596590 13.172200 -71.636900 -11.754300 -0.000006 -0.000006 -0.001600 -0.023589 -17.532300
0.000000 0.000000 0.000000 0.000000 0.000000 -0.000000 -3.409630 91.385700 2.518780 89.031100 2.225360 2.062050 15.735700 0.000005 -0.000001 95.036200 85.953100 -97.040400 8.984550 -0.406207 -0.000000 0.314534 0.840572 -4.007870 16.377300 -0.000001 -0.000001 7.143290 -3.465610 3.366570 6.456720 -0.000001 -0.000000 2.289140 -1.845310 -0.703117 12.994200 -0.242716 4.980390 -91.892100 5.010230 -69.280600 5.348090 -0.000007 -0.000001 -61.686300 27.911800 -12.657300 24.328600 0.000019 0.000005 7.346020 19.149800 -21.454700 22.291600 -0.000001 0.000005 14.099700 5.175590 3.323900 12.994500 -0.242716 -4.980390 90.406900 -1.385500 -73.632800 -5.348130 -0.000001 -0.000004 -37.142300 -42.861900 -65.385600 -24.328900 0.000322 -0.000009 -8.841250 -1.316760 -81.593400 -22.291500 -0.000108 -0.000004 21.448000 5.522330 -7.462060 -2.192480 -6.469440 -0.000000 -173.353000 -11.045700 -4.707960 39.081100 -0.000007 -0.000012 -0.203264 0.417554 25.957000 40.985400 -0.000006 -0.000013 -1.501610 8.804630 -68.896600 11.754300 -0.000000 0.000003 -0.000292 -0.002546 -16.672500 -2.192510 6.469440 -0.000001 178.071000 27.254700 177.484000 -39.081100 -0.002282 -0.040193 -0.038640 0.089121 25.207300 -40.985400 0.000008 0.000006 7.200270 13.571700 -71.585800 -11.754300 -0.000006 -0.000006 -0.001541 -0.022817 -17.500900
0.000000 0.000000 0.000000 0.000000 0.000000 -0.000000 -3.178560 91.354100 2.570950 89.056300 1.602340 2.205310 15.735700 0.000005 -0.000001 91.507800 85.930000 -93.292000 8.984550 -0.406207 -0.000000 0.378828 0.329083 -3.567100 16.377300 -0.000001 -0.000001 6.578020 -2.708650 2.331930 6.456720 -0.000001 -0.000000 2.187730 -1.370440 -0.997474 12.994200 -0.242716 4.980390 -92.048600 5.369790 -69.082200 5.348090 -0.000007 -0.000001 -61.940200 28.738600 -12.629600 24.328600 0.000019 0.000005 7.129760 18.985600 -21.030800 22.291600 -0.000001 0.000005 14.079700 5.177210 3.284210 12.994500 -0.242716 -4.980390 89.772700 0.861364 -75.212400 -5.348130 -0.000001 -0.000004 -32.642800 -35.847700 -55.237200 -24.328900 0.000322 -0.000009 -9.697410 -0.447109 -87.382900 -22.291500 -0.000108 -0.000004 22.206000 5.523740 -7.522150 -2.192480 -6.469440 -0.000000 -173.488000 -11.526500 -4.477480 39.081100 -0.000007 -0.000012 -0.200600 0.408758 26.140000 40.985400 -0.000006 -0.000013 -1.350090 8.637420 -69.131200 11.754300 -0.000000 0.000003 -0.000280 -0.002455 -16.669200 -2.192510 6.469440 -0.000001 177.740000 26.852300 177.534000 -39.081100 -0.002282 -0.040193 -0.059580 0.132316 25.422300 -40.985400 0.000008 0.000006 6.713800 13.915500 -71.528600 -11.754300 -0.000006 -0.000006 -0.001442 -0.021497 -17.447200
